<?xml version="1.0" encoding="UTF-8"?>
<svg version="1.1" xmlns="http://www.w3.org/2000/svg" width="1920" height="1080">
<path d="M0 0 C1.42923378 -0.00407839 2.8584644 -0.00942729 4.28768921 -0.01593018 C8.12446812 -0.02945799 11.96100159 -0.02436652 15.79778409 -0.01479292 C19.83955557 -0.00712149 23.88130802 -0.01426233 27.92308044 -0.01895142 C34.7054313 -0.02438679 41.48768368 -0.01727534 48.27001953 -0.00292969 C56.07950908 0.01339916 63.88876361 0.00809768 71.69824749 -0.0084089 C78.43924946 -0.02207949 85.18018122 -0.02391655 91.92119259 -0.0160929 C95.9316425 -0.01144769 99.94198242 -0.01070375 103.952425 -0.02070236 C107.7242264 -0.02945175 111.49572851 -0.02320697 115.26749802 -0.00601959 C117.28901015 -0.00024561 119.31054799 -0.00900119 121.33204651 -0.0184021 C129.65240568 0.0386127 137.09629543 1.24491836 145.12280273 3.38818359 C146.40155273 3.65630859 147.68030273 3.92443359 148.99780273 4.20068359 C153.19388529 5.79519497 155.92809521 8.29756428 159.12280273 11.38818359 C159.82405273 12.04818359 160.52530273 12.70818359 161.24780273 13.38818359 C173.16344735 26.09820452 175.2791289 36.09356664 175.25219727 53.1887207 C175.25355433 54.57429551 175.25533597 55.95986996 175.25750732 57.34544373 C175.26204579 61.08926561 175.26030679 64.83305978 175.25712824 68.57688212 C175.25458555 72.5071118 175.25694753 76.4373392 175.2585144 80.36756897 C175.26033075 86.96713687 175.25794405 93.56669357 175.25317383 100.16625977 C175.2477345 107.77909175 175.24949363 115.39189693 175.25500023 123.00472826 C175.2595493 129.55784456 175.26017307 136.11095282 175.25756156 142.66407019 C175.25600836 146.5704893 175.25577864 150.47689585 175.25909805 154.38331413 C175.2620028 158.05807425 175.25995354 161.73280009 175.2542038 165.40755653 C175.25226702 167.38695861 175.25520804 169.3663636 175.2583313 171.34576416 C175.21508179 189.68378827 175.21508179 189.68378827 171.12280273 195.76318359 C169.38737148 198.39136074 168.12393203 200.38479571 167.12280273 203.38818359 C165.47277446 204.74205295 163.80536403 206.07496502 162.12280273 207.38818359 C161.46280273 208.37818359 160.80280273 209.36818359 160.12280273 210.38818359 C158.47723707 211.42253915 156.80574193 212.41581872 155.12280273 213.38818359 C154.11217773 214.21318359 153.10155273 215.03818359 152.06030273 215.88818359 C144.63154196 221.12459246 135.7074122 221.57363164 126.89941406 221.95800781 C125.99123082 221.99899031 125.08304758 222.0399728 124.14734364 222.08219719 C112.04310754 222.5760535 99.9341403 222.53234702 87.82202148 222.52099609 C85.24477632 222.52167189 82.66753121 222.5226442 80.09028625 222.52389526 C74.72766442 222.52535796 69.36506085 222.52336212 64.00244141 222.51855469 C57.84989902 222.51310195 51.69738975 222.51489013 45.54484814 222.52038109 C39.55676304 222.52550603 33.56869381 222.52491322 27.58060646 222.52199936 C25.06231494 222.52133816 22.54402255 222.52212989 20.02573204 222.52447891 C-28.21301855 222.55963446 -28.21301855 222.55963446 -43.87719727 209.38818359 C-56.55294781 196.50938899 -59.19402257 183.28082491 -59.13598633 165.75366211 C-59.14124329 163.77580719 -59.14124329 163.77580719 -59.14660645 161.75799561 C-59.15564796 158.17320667 -59.15222034 154.58853412 -59.14584827 151.00374341 C-59.14074418 147.2310846 -59.14549197 143.458435 -59.14862061 139.68577576 C-59.15224795 133.35210401 -59.1474941 127.01847907 -59.13793945 120.68481445 C-59.12706199 113.3906194 -59.13058031 106.09653624 -59.14159226 98.8023439 C-59.15070603 92.51068185 -59.15193038 86.21905323 -59.14671493 79.9273867 C-59.143617 76.18242846 -59.14312522 72.43752258 -59.1497879 68.69256783 C-59.15562045 65.16874147 -59.15145803 61.64505752 -59.13999939 58.12124634 C-59.13614898 56.23191008 -59.14198804 54.3425616 -59.14825439 52.45323181 C-59.04918954 32.19393853 -59.04918954 32.19393853 -52.87719727 24.38818359 C-52.21722633 23.18751357 -51.571796 21.97875808 -50.93969727 20.76318359 C-48.85962545 17.35942972 -47.06759536 15.70122221 -43.87719727 13.38818359 C-42.91813477 12.42912109 -42.91813477 12.42912109 -41.93969727 11.45068359 C-37.77417426 7.28516059 -34.73235149 4.3648143 -28.87719727 3.38818359 C-27.87803819 3.14389807 -26.87887911 2.89961254 -25.84944248 2.64792442 C-17.12272775 0.5722453 -8.94923098 -0.04168268 0 0 Z " fill="#001038" transform="translate(899.877197265625,420.61181640625)"/>
<path d="M0 0 C5.78354619 3.80318796 10.56115325 9.28685457 12.609375 15.99609375 C13.64042123 21.28536093 13.94110026 24.6026087 10.9375 29.0625 C8 31 8 31 4.4375 31.125 C0.28469047 29.7658987 -0.77907709 28.72797774 -3 25 C-3.4770895 23.67326234 -3.93446749 22.3393201 -4.375 21 C-5.96480924 16.46259848 -7.92106985 14.55932872 -12 12 C-16.10268779 11.14527338 -17.55626851 11.72488648 -21.125 13.9375 C-29.14024225 21.36523759 -30.14964232 33.80430995 -30.9375 44.0625 C-32.51313624 62.02129713 -34.69280774 80.4611124 -49 93 C-53.94294072 94.64764691 -59.1958027 95.04330389 -64.15234375 93.19921875 C-73.63379879 87.73564763 -79.33559202 78.59415653 -84 69 C-84.36867188 68.24847656 -84.73734375 67.49695313 -85.1171875 66.72265625 C-91.08485603 53.93149076 -95.18861797 40.14833663 -95.4375 26 C-95.45973633 25.28175049 -95.48197266 24.56350098 -95.50488281 23.82348633 C-95.48945851 20.18463647 -95.10498108 18.16236204 -93.11328125 15.08203125 C-89.65140082 11.67134314 -86.9664891 11.12675267 -82.1875 10.5 C-77.06593968 10.61661997 -73.48576193 13.43241267 -70 17 C-68.43772316 19.72169847 -67.68975499 22.01327287 -67.31738281 25.11914062 C-67.21677551 25.92097778 -67.11616821 26.72281494 -67.01251221 27.5489502 C-66.91041443 28.40935913 -66.80831665 29.26976807 -66.703125 30.15625 C-66.46439724 32.00271499 -66.22478463 33.84906574 -65.984375 35.6953125 C-65.61536545 38.58588732 -65.25278376 41.47675721 -64.90625 44.37011719 C-63.54456333 55.62337437 -62.2321792 65.27840995 -56 75 C-54.00746603 74.21680591 -54.00746603 74.21680591 -52 73 C-51.03748175 70.46473952 -50.41240193 68.25789326 -49.875 65.625 C-49.70669678 64.8520459 -49.53839355 64.0790918 -49.36499023 63.28271484 C-47.65442591 54.64748645 -47.23516217 45.88427528 -46.94677734 37.10009766 C-46.31414954 23.65054524 -41.03115777 11.34312176 -31.0625 2.125 C-21.22585064 -5.88935893 -10.92828455 -5.92408691 0 0 Z " fill="#AB7AB6" transform="translate(1003,488)"/>
<path d="M0 0 C0.33 0 0.66 0 1 0 C1 45.54 1 91.08 1 138 C0.67 138 0.34 138 0 138 C0 92.46 0 46.92 0 0 Z " fill="#000000" transform="translate(1076,462)"/>
<path d="M0 0 C0 0.66 0 1.32 0 2 C-9.9 2 -19.8 2 -30 2 C-30 1.67 -30 1.34 -30 1 C-29.44014404 0.97494385 -28.88028809 0.9498877 -28.3034668 0.92407227 C-25.76458695 0.80796255 -23.22606447 0.6853042 -20.6875 0.5625 C-19.36588867 0.50352539 -19.36588867 0.50352539 -18.01757812 0.44335938 C-16.74624023 0.38051758 -16.74624023 0.38051758 -15.44921875 0.31640625 C-14.66893311 0.27974854 -13.88864746 0.24309082 -13.0847168 0.20532227 C-4.40345059 -0.64968943 -4.40345059 -0.64968943 0 0 Z " fill="#07143E" transform="translate(1037,422)"/>
<path d="M0 0 C0.66 0.33 1.32 0.66 2 1 C0.54782324 2.50596108 -0.91192861 4.00462104 -2.375 5.5 C-3.18710937 6.3353125 -3.99921875 7.170625 -4.8359375 8.03125 C-7 10 -7 10 -9 10 C-7.61811547 6.78956118 -6.07578097 4.95063635 -3.375 2.75 C-2.74335937 2.22921875 -2.11171875 1.7084375 -1.4609375 1.171875 C-0.73777344 0.59179688 -0.73777344 0.59179688 0 0 Z " fill="#864FAE" transform="translate(976,487)"/>
<path d="M0 0 C0.33 0.66 0.66 1.32 1 2 C-2.11016455 5.28788824 -5.01618925 7.83735988 -9 10 C-7.24277009 5.68679932 -4.1937832 2.0968916 0 0 Z " fill="#111C4F" transform="translate(862,429)"/>
<path d="M0 0 C-1.28519565 2.86697492 -2.57129254 4.97607712 -5 7 C-5.66 7 -6.32 7 -7 7 C-3.86206897 0 -3.86206897 0 0 0 Z " fill="#201E58" transform="translate(985,500)"/>
<path d="M0 0 C0.66 0 1.32 0 2 0 C1.34 2.97 0.68 5.94 0 9 C-0.33 9 -0.66 9 -1 9 C-1.625 6.1875 -1.625 6.1875 -2 3 C-1.34 2.01 -0.68 1.02 0 0 Z " fill="#0E1B38" transform="translate(845,448)"/>
<path d="" fill="#000000" transform="translate(0,0)"/>
<path d="" fill="#000000" transform="translate(0,0)"/>
<path d="" fill="#000000" transform="translate(0,0)"/>
<path d="" fill="#000000" transform="translate(0,0)"/>
<path d="" fill="#000000" transform="translate(0,0)"/>
<path d="" fill="#000000" transform="translate(0,0)"/>
<path d="" fill="#000000" transform="translate(0,0)"/>
<path d="" fill="#000000" transform="translate(0,0)"/>
<path d="" fill="#000000" transform="translate(0,0)"/>
<path d="" fill="#000000" transform="translate(0,0)"/>
<path d="" fill="#000000" transform="translate(0,0)"/>
<path d="" fill="#000000" transform="translate(0,0)"/>
</svg>
